<svg width="80" height="80" viewBox="0 0 80 80" fill="none" xmlns="http://www.w3.org/2000/svg">
<path d="M40 73.3332C36.6111 73.3332 33.1389 72.7221 29.5833 71.4998C26.0278 70.2776 22.8056 68.611 19.9167 66.4998C17.0278 64.3887 14.6533 61.9165 12.7933 59.0832C10.9333 56.2498 10.0022 53.2221 10 49.9998V43.3332C10 42.6665 10.3056 42.1665 10.9167 41.8332C11.5278 41.4998 12.1111 41.5554 12.6667 41.9998L20.25 47.6665C21.0278 48.2776 21.4578 49.0976 21.54 50.1265C21.6222 51.1554 21.3033 52.0298 20.5833 52.7498L18.1667 55.1665C19.7778 57.9998 22.3333 60.4443 25.8333 62.4998C29.3333 64.5554 32.9444 65.8609 36.6667 66.4165V36.6665H30C29.0556 36.6665 28.2644 36.3465 27.6267 35.7065C26.9889 35.0665 26.6689 34.2754 26.6667 33.3332C26.6644 32.3909 26.9844 31.5998 27.6267 30.9598C28.2689 30.3198 29.06 29.9998 30 29.9998H36.6667V26.0832C34.7222 25.3609 33.1256 24.1521 31.8767 22.4565C30.6278 20.7609 30.0022 18.8309 30 16.6665C30 13.8887 30.9722 11.5276 32.9167 9.58317C34.8611 7.63873 37.2222 6.6665 40 6.6665C42.7778 6.6665 45.1389 7.63873 47.0833 9.58317C49.0278 11.5276 50 13.8887 50 16.6665C50 18.8332 49.3756 20.7643 48.1267 22.4598C46.8778 24.1554 45.28 25.3632 43.3333 26.0832V29.9998H50C50.9444 29.9998 51.7367 30.3198 52.3767 30.9598C53.0167 31.5998 53.3356 32.3909 53.3333 33.3332C53.3311 34.2754 53.0111 35.0676 52.3733 35.7098C51.7356 36.3521 50.9444 36.6709 50 36.6665H43.3333V66.4165C47.0556 65.8609 50.6667 64.5554 54.1667 62.4998C57.6667 60.4443 60.2222 57.9998 61.8333 55.1665L59.4167 52.7498C58.6944 52.0276 58.3744 51.1532 58.4567 50.1265C58.5389 49.0998 58.97 48.2798 59.75 47.6665L67.3333 41.9998C67.8889 41.5554 68.4722 41.4998 69.0833 41.8332C69.6944 42.1665 70 42.6665 70 43.3332V49.9998C70 53.2221 69.0689 56.2498 67.2067 59.0832C65.3444 61.9165 62.97 64.3887 60.0833 66.4998C57.1967 68.611 53.9744 70.2776 50.4167 71.4998C46.8589 72.7221 43.3867 73.3332 40 73.3332ZM40 19.9998C40.9444 19.9998 41.7367 19.6809 42.3767 19.0432C43.0167 18.4054 43.3356 17.6132 43.3333 16.6665C43.3311 15.7198 43.0111 14.9287 42.3733 14.2932C41.7356 13.6576 40.9444 13.3376 40 13.3332C39.0556 13.3287 38.2644 13.6487 37.6267 14.2932C36.9889 14.9376 36.6689 15.7287 36.6667 16.6665C36.6644 17.6043 36.9844 18.3965 37.6267 19.0432C38.2689 19.6898 39.06 20.0087 40 19.9998Z" fill="#0A4A70"/>
</svg>
